<?xml version="1.0" ?><!DOCTYPE svg  PUBLIC '-//W3C//DTD SVG 1.1//EN'  'http://www.w3.org/Graphics/SVG/1.1/DTD/svg11.dtd'><svg enable-background="new 0 0 512 512" id="Layer_1" version="1.1" viewBox="0 0 512 512" xml:space="preserve" xmlns="http://www.w3.org/2000/svg" xmlns:xlink="http://www.w3.org/1999/xlink"><g><path d="M318.7,125.2h-23.5c-2.5,0-4.7-1.8-5.1-4.3   l-15.6-87.4h-36.9l-15.6,87.4c-0.4,2.5-2.6,4.3-5.1,4.3h-23.5c-12.5,0-22.5,10.1-22.5,22.5V466c0,22.2,18,40.2,40.2,40.2H301   c22.2,0,40.2-18,40.2-40.2V147.7C341.3,135.3,331.2,125.2,318.7,125.2z" fill="#FFE235" stroke="#000000" stroke-miterlimit="10" stroke-width="8"/><rect fill="#FBC858" height="140.9" stroke="#000000" stroke-miterlimit="10" stroke-width="8" width="170.3" x="170.9" y="245"/><g><g><circle cx="255.7" cy="315.7" fill="#FFE235" r="20.1" stroke="#FF1901" stroke-miterlimit="10" stroke-width="2"/><g><line fill="none" stroke="#FF1901" stroke-miterlimit="10" stroke-width="2" x1="255.7" x2="255.7" y1="291.1" y2="263.5"/><line fill="none" stroke="#FF1901" stroke-miterlimit="10" stroke-width="2" x1="255.7" x2="255.7" y1="367.9" y2="340.3"/></g><g><line fill="none" stroke="#FF1901" stroke-miterlimit="10" stroke-width="2" x1="243.4" x2="232.3" y1="294.4" y2="274.6"/><line fill="none" stroke="#FF1901" stroke-miterlimit="10" stroke-width="2" x1="279.9" x2="268" y1="357.1" y2="337"/></g><g><line fill="none" stroke="#FF1901" stroke-miterlimit="10" stroke-width="2" x1="231.2" x2="208.4" y1="316.1" y2="315.9"/><line fill="none" stroke="#FF1901" stroke-miterlimit="10" stroke-width="2" x1="303.8" x2="280.4" y1="315.8" y2="316.1"/></g><g><line fill="none" stroke="#FF1901" stroke-miterlimit="10" stroke-width="2" x1="243.9" x2="232.3" y1="337.5" y2="357.1"/><line fill="none" stroke="#FF1901" stroke-miterlimit="10" stroke-width="2" x1="279.9" x2="268.5" y1="274.6" y2="295"/></g><g><line fill="none" stroke="#FF1901" stroke-miterlimit="10" stroke-width="2" x1="234.4" x2="210.5" y1="303.4" y2="289.6"/><line fill="none" stroke="#FF1901" stroke-miterlimit="10" stroke-width="2" x1="300.9" x2="277" y1="341.8" y2="328"/></g><g><line fill="none" stroke="#FF1901" stroke-miterlimit="10" stroke-width="2" x1="234.4" x2="210.5" y1="328" y2="341.8"/><line fill="none" stroke="#FF1901" stroke-miterlimit="10" stroke-width="2" x1="300.9" x2="277" y1="289.6" y2="303.4"/></g></g><path d="M271.9,314.6    c0,8.9-7.3,16.2-16.2,16.2" fill="#FFE235" stroke="#FF1901" stroke-linecap="round" stroke-miterlimit="10" stroke-width="2"/></g><path d="M289,100.1h-65.7c-2.3,0-4.1-1.8-4.1-4.1V28.8   c0-12.5,10.1-22.6,22.6-22.6h28.8c12.5,0,22.6,10.1,22.6,22.6v67.3C293,98.3,291.2,100.1,289,100.1z" fill="#FBC858" stroke="#000000" stroke-miterlimit="10" stroke-width="8"/><g><g><polyline fill="#FFE235" points="173.4,182.4 194.1,184.4 214.7,182.4 235.4,184.4 256.1,182.4 276.8,184.4 297.4,182.4      318.1,184.4 338.8,182.4    "/><polyline fill="none" points="173.4,182.4 194.1,184.4 214.7,182.4      235.4,184.4 256.1,182.4 276.8,184.4 297.4,182.4 318.1,184.4 338.8,182.4    " stroke="#000000" stroke-miterlimit="10" stroke-width="8"/></g><g><polyline fill="#FFE235" points="173.4,446.4 194.1,448.4 214.7,446.4 235.4,448.4 256.1,446.4 276.8,448.4 297.4,446.4      318.1,448.4 338.8,446.4    "/><polyline fill="none" points="173.4,446.4 194.1,448.4 214.7,446.4      235.4,448.4 256.1,446.4 276.8,448.4 297.4,446.4 318.1,448.4 338.8,446.4    " stroke="#000000" stroke-miterlimit="10" stroke-width="8"/></g></g></g></svg>